GIL01_fast5_ik
nRows=3
nColumns=375

# SIMM Motion File Header:
name GIL01_fast5_ik
datacolumns 375
datarows 3
otherdata 1
range 0.75833000 0.77500000
endheader
time	pelvis_tx	pelvis_ty	pelvis_tz	pelvis_tilt	pelvis_list	pelvis_rotation	hip_flexion_r	hip_adduction_r	hip_rotation_r	knee_angle_r	ankle_angle_r	hip_flexion_l	hip_adduction_l	hip_rotation_l	knee_angle_l	ankle_angle_l	lumbar_extension	lumbar_bending	lumbar_rotation	subtalar_angle_r	mtp_angle_r	subtalar_angle_l	mtp_angle_l	asis_r_px	asis_r_py	asis_r_pz	asis_l_px	asis_l_py	asis_l_pz	midasis_px	midasis_py	midasis_pz	psis_r_px	psis_r_py	psis_r_pz	psis_l_px	psis_l_py	psis_l_pz	hip_r_px	hip_r_py	hip_r_pz	hip_l_px	hip_l_py	hip_l_pz	midhip_px	midhip_py	midhip_pz	epicondLat_r_px	epicondLat_r_py	epicondLat_r_pz	epicondMed_r_px	epicondMed_r_py	epicondMed_r_pz	thighwand_r_px	thighwand_r_py	thighwand_r_pz	upperleg1_r_px	upperleg1_r_py	upperleg1_r_pz	upperleg2_r_px	upperleg2_r_py	upperleg2_r_pz	malleolusLat_r_px	malleolusLat_r_py	malleolusLat_r_pz	malleolusMedv_r_px	malleolusMedv_r_py	malleolusMedv_r_pz	shankwand_r_px	shankwand_r_py	shankwand_r_pz	lowerleg1_r_px	lowerleg1_r_py	lowerleg1_r_pz	knee_r_px	knee_r_py	knee_r_pz	ankle_r_px	ankle_r_py	ankle_r_pz	toe_r_px	toe_r_py	toe_r_pz	epicondLat_l_px	epicondLat_l_py	epicondLat_l_pz	epicondMed_l_px	epicondMed_l_py	epicondMed_l_pz	thighwand_l_px	thighwand_l_py	thighwand_l_pz	upperleg1_l_px	upperleg1_l_py	upperleg1_l_pz	upperleg2_l_px	upperleg2_l_py	upperleg2_l_pz	malleolusLat_l_px	malleolusLat_l_py	malleolusLat_l_pz	malleolusMedv_l_px	malleolusMedv_l_py	malleolusMedv_l_pz	shankwand_l_px	shankwand_l_py	shankwand_l_pz	lowerleg1_l_px	lowerleg1_l_py	lowerleg1_l_pz	knee_l_px	knee_l_py	knee_l_pz	ankle_l_px	ankle_l_py	ankle_l_pz	toe_l_px	toe_l_py	toe_l_pz	subclavicle_r_px	subclavicle_r_py	subclavicle_r_pz	subclavicle_l_px	subclavicle_l_py	subclavicle_l_pz	neck_px	neck_py	neck_pz	sternalnotch_px	sternalnotch_py	sternalnotch_pz	xyphoidprocess_px	xyphoidprocess_py	xyphoidprocess_pz	midhip_tx	midhip_ty	midhip_tz	hip_r_tx	hip_r_ty	hip_r_tz	hip_l_tx	hip_l_ty	hip_l_tz	knee_r_tx	knee_r_ty	knee_r_tz	knee_l_tx	knee_l_ty	knee_l_tz	ankle_r_tx	ankle_r_ty	ankle_r_tz	ankle_l_tx	ankle_l_ty	ankle_l_tz	midasis_tx	midasis_ty	midasis_tz	asis_r_tx	asis_r_ty	asis_r_tz	asis_l_tx	asis_l_ty	asis_l_tz	psis_r_tx	psis_r_ty	psis_r_tz	psis_l_tx	psis_l_ty	psis_l_tz	epicondLat_r_tx	epicondLat_r_ty	epicondLat_r_tz	epicondLat_l_tx	epicondLat_l_ty	epicondLat_l_tz	epicondMed_r_tx	epicondMed_r_ty	epicondMed_r_tz	epicondMed_l_tx	epicondMed_l_ty	epicondMed_l_tz	malleolusLat_r_tx	malleolusLat_r_ty	malleolusLat_r_tz	malleolusLat_l_tx	malleolusLat_l_ty	malleolusLat_l_tz	malleolusMedv_r_tx	malleolusMedv_r_ty	malleolusMedv_r_tz	malleolusMedv_l_tx	malleolusMedv_l_ty	malleolusMedv_l_tz	neck_tx	neck_ty	neck_tz	subclavicle_r_tx	subclavicle_r_ty	subclavicle_r_tz	subclavicle_l_tx	subclavicle_l_ty	subclavicle_l_tz	sternalnotch_tx	sternalnotch_ty	sternalnotch_tz	xyphoidprocess_tx	xyphoidprocess_ty	xyphoidprocess_tz	thighwand_r_tx	thighwand_r_ty	thighwand_r_tz	thighwand_l_tx	thighwand_l_ty	thighwand_l_tz	upperleg1_r_tx	upperleg1_r_ty	upperleg1_r_tz	upperleg1_l_tx	upperleg1_l_ty	upperleg1_l_tz	upperleg2_r_tx	upperleg2_r_ty	upperleg2_r_tz	upperleg2_l_tx	upperleg2_l_ty	upperleg2_l_tz	shankwand_r_tx	shankwand_r_ty	shankwand_r_tz	shankwand_l_tx	shankwand_l_ty	shankwand_l_tz	lowerleg1_r_tx	lowerleg1_r_ty	lowerleg1_r_tz	lowerleg1_l_tx	lowerleg1_l_ty	lowerleg1_l_tz	toe_r_tx	toe_r_ty	toe_r_tz	toe_l_tx	toe_l_ty	toe_l_tz	ground_force_vx	ground_force_vy	ground_force_vz	ground_force_px	ground_force_py	ground_force_pz	ground_force_vx	ground_force_vy	ground_force_vz	ground_force_px	ground_force_py	ground_force_pz	ground_torque_x	ground_torque_y	ground_torque_z	ground_torque_x	ground_torque_y	ground_torque_z	ground_marker_px	ground_marker_py	ground_marker_pz	ground_marker_px	ground_marker_py	ground_marker_pz	ground_marker_px	ground_marker_py	ground_marker_pz	ground_marker_px	ground_marker_py	ground_marker_pz	ground_marker_px	ground_marker_py	ground_marker_pz	ground_marker_px	ground_marker_py	ground_marker_pz	ground_marker_px	ground_marker_py	ground_marker_pz	ground_marker_px	ground_marker_py	ground_marker_pz	ground_marker_px	ground_marker_py	ground_marker_pz	ground_marker_px	ground_marker_py	ground_marker_pz	ground_marker_px	ground_marker_py	ground_marker_pz	ground_marker_px	ground_marker_py	ground_marker_pz	ground_marker_px	ground_marker_py	ground_marker_pz	ground_marker_px	ground_marker_py	ground_marker_pz	ground_marker_px	ground_marker_py	ground_marker_pz	ground_marker_px	ground_marker_py	ground_marker_pz	ground_marker_px	ground_marker_py	ground_marker_pz	ground_marker_px	ground_marker_py	ground_marker_pz	ground_marker_px	ground_marker_py	ground_marker_pz	ground_marker_px	ground_marker_py	ground_marker_pz	ground_marker_px	ground_marker_py	ground_marker_pz	ground_marker_px	ground_marker_py	ground_marker_pz	ground_marker_px	ground_marker_py	ground_marker_pz	ground_marker_px	ground_marker_py	ground_marker_pz	ground_marker_px	ground_marker_py	ground_marker_pz	ground_marker_px	ground_marker_py	ground_marker_pz	ground_marker_px	ground_marker_py	ground_marker_pz	ground_marker_px	ground_marker_py	ground_marker_pz	ground_marker_px	ground_marker_py	ground_marker_pz	ground_marker_px	ground_marker_py	ground_marker_pz	ground_marker_px	ground_marker_py	ground_marker_pz	ground_marker_px	ground_marker_py	ground_marker_pz	ground_marker_px	ground_marker_py	ground_marker_pz	ground_marker_px	ground_marker_py	ground_marker_pz	ground_marker_px	ground_marker_py	ground_marker_pz	ground_marker_px	ground_marker_py	ground_marker_pz	ground_marker_px	ground_marker_py	ground_marker_pz
      0.75833000	      1.42539171	      0.79653306	     -0.23845752	     -5.89811904	      2.99715800	      0.93776003	     26.86368407	     -3.55661201	      3.49997649	    -55.18008743	     -6.45366194	      8.78282320	      7.50119535	      0.11990318	    -13.82436642	      9.60352942	      2.56785789	     -3.24369221	     -0.19195246	      0.00000000	      0.00000000	      0.00000000	      0.00000000	      1.44611651	      0.79029200	     -0.13577613	      1.46106072	      0.79542426	     -0.34474260	      1.43679101	      0.79536529	     -0.23864483	      1.30074351	      0.85139871	     -0.21632329	      1.30079271	      0.85254376	     -0.27145785	      1.36301808	      0.74501093	     -0.17208983	      1.36152695	      0.75234998	     -0.30859182	      1.36227252	      0.74868046	     -0.24034082	      1.45696975	      0.40565130	     -0.10681535	      1.45693002	      0.40707514	     -0.21402094	      1.52652548	      0.55311335	     -0.06416484	      1.44001377	      0.58605987	     -0.09438266	      1.46104789	      0.50153699	     -0.10848269	      1.28200440	      0.13437391	     -0.10512743	      1.29114117	      0.12662111	     -0.16413643	      1.32146534	      0.24431245	     -0.03594068	      1.30822336	      0.20751681	     -0.10877381	      1.48836439	      0.42687330	     -0.16951424	      1.29218036	      0.13807523	     -0.15298943	      1.34241411	      0.04052522	     -0.11644997	      1.34469980	      0.41248444	     -0.33637675	      1.32563089	      0.37194459	     -0.20331797	      1.51264867	      0.53170142	     -0.31055268	      1.44454864	      0.59245169	     -0.34361757	      1.39016417	      0.47054499	     -0.29638103	      1.29663381	      0.06869505	     -0.30250556	      1.31222171	      0.06722448	     -0.24876350	      1.31750068	      0.18796797	     -0.38333591	      1.30334181	      0.15335912	     -0.30803919	      1.37683611	      0.41793968	     -0.28284662	      1.31089203	      0.07572109	     -0.25632537	      1.40858850	      0.03505163	     -0.30083273	      1.41587283	      1.16179457	     -0.19130100	      1.41617884	      1.17190001	     -0.26583290	      1.30900001	      1.21255103	     -0.23669650	      1.40193952	      1.16466707	     -0.23032596	      1.43789812	      1.08587212	     -0.23845913	      1.36952300	      0.73981600	     -0.23379500	      1.35682600	      0.73584200	     -0.16860800	      1.35634900	      0.74168800	     -0.29879200	      1.47910500	      0.41536800	     -0.15902800	      1.37351900	      0.42170400	     -0.27094700	      1.29685700	      0.14859000	     -0.17132600	      1.30698100	      0.06928900	     -0.25815800	      1.43144900	      0.80265300	     -0.23110600	      1.43181300	      0.79820300	     -0.13200600	      1.43108600	      0.80710300	     -0.33020500	      1.27801600	      0.85148400	     -0.19302600	      1.27433500	      0.85308900	     -0.24779600	      1.48130900	      0.41785000	     -0.10412900	      1.37380600	      0.41699500	     -0.32524300	      1.49016000	      0.40665700	     -0.19517900	      1.36526300	      0.39638000	     -0.23150100	      1.28717900	      0.15354700	     -0.13543700	      1.30534000	      0.06825800	     -0.29510800	      1.30560600	      0.14923900	     -0.19436900	      1.30657500	      0.06887400	     -0.22809000	      1.30999700	      1.21719600	     -0.23550400	      1.41827800	      1.15836200	     -0.19497000	      1.41539400	      1.16117900	     -0.27093400	      1.40207400	      1.15864700	     -0.23383000	      1.42986900	      1.07628400	     -0.23553100	      1.54815000	      0.56434100	     -0.05219900	      1.51339300	      0.54572800	     -0.28771600	      1.45454000	      0.58438000	     -0.08022100	      1.44229600	      0.59990100	     -0.32874100	      1.48529200	      0.50564600	     -0.09253300	      1.43433300	      0.51356300	     -0.32081200	      1.33222500	      0.25456100	     -0.05614500	      1.35470200	      0.18070000	     -0.37153100	      1.32405800	      0.22266300	     -0.13264300	      1.32402900	      0.14968200	     -0.29960400	      1.34745400	      0.06715100	     -0.14053900	      1.40718900	      0.03699100	     -0.26315300	      0.00000000	      0.00000000	      0.00000000	      0.87037640	      0.00000000	     -0.18473322	     -5.20993891	    320.90665074	      5.46830912	      1.36412915	      0.00000000	     -0.26576666	      0.00000000	      0.00000000	      0.00000000	      0.00000000	     -0.54278741	      0.00000000	      1.36952257	      0.73981607	     -0.23379457	      1.35682642	      0.73584211	     -0.16860831	      1.35634935	      0.74168760	     -0.29879177	      1.47910523	      0.41536832	     -0.15902831	      1.37351882	      0.42170414	     -0.27094749	      1.29685700	      0.14858985	     -0.17132603	      1.30698121	      0.06928919	     -0.25815842	      1.43144941	      0.80265296	     -0.23110564	      1.43181252	      0.79820323	     -0.13200641	      1.43108630	      0.80710274	     -0.33020487	      1.27801621	      0.85148358	     -0.19302641	      1.27433467	      0.85308939	     -0.24779572	      1.48130882	      0.41785026	     -0.10412855	      1.37380612	      0.41699487	     -0.32524288	      1.49015987	      0.40665677	     -0.19517855	      1.36526334	      0.39638031	     -0.23150089	      1.28717935	      0.15354674	     -0.13543701	      1.30533969	      0.06825822	     -0.29510760	      1.30560625	      0.14923871	     -0.19436948	      1.30657494	      0.06887413	     -0.22809024	      1.30999732	      1.21719563	     -0.23550409	      1.41827762	      1.15836155	     -0.19496994	      1.41539371	      1.16117859	     -0.27093428	      1.40207434	      1.15864706	     -0.23383032	      1.42986929	      1.07628429	     -0.23553145	      1.54815030	      0.56434095	     -0.05219933	      1.51339293	      0.54572833	     -0.28771558	      1.45454037	      0.58437997	     -0.08022091	      1.44229603	      0.59990084	     -0.32874101	      1.48529196	      0.50564563	     -0.09253343	      1.43433309	      0.51356292	     -0.32081202	      1.33222461	      0.25456053	     -0.05614524	      1.35470223	      0.18069991	     -0.37153149	      1.32405818	      0.22266318	     -0.13264273	      1.32402921	      0.14968155	     -0.29960379	      1.34745383	      0.06715102	     -0.14053857	      1.40718949	      0.03699132	     -0.26315331
      0.76667000	      1.43570416	      0.79672608	     -0.23904710	     -5.88851669	      2.67783089	      1.17237470	     27.90083977	     -3.25124883	      3.76557899	    -53.27549777	     -5.45216600	      7.48480067	      7.24260279	      0.49590192	    -12.99135375	      9.86933344	      2.39222009	     -2.79902696	     -0.46279899	      0.00000000	      0.00000000	      0.00000000	      0.00000000	      1.45690751	      0.79101874	     -0.13643239	      1.47088011	      0.79508539	     -0.34548952	      1.44710292	      0.79556145	     -0.23928133	      1.31113904	      0.85165976	     -0.21661595	      1.31093200	      0.85252227	     -0.27175528	      1.37365880	      0.74552239	     -0.17212755	      1.37153160	      0.75216128	     -0.30865696	      1.37259520	      0.74884183	     -0.24039225	      1.47450339	      0.40806543	     -0.10727542	      1.47336900	      0.40930424	     -0.21447731	      1.54174737	      0.55685797	     -0.06554836	      1.45434550	      0.58815174	     -0.09495038	      1.47679440	      0.50400700	     -0.10913039	      1.31432159	      0.12732569	     -0.10377984	      1.32320342	      0.12004128	     -0.16288736	      1.34880668	      0.23917019	     -0.03499000	      1.33668937	      0.20172348	     -0.10768697	      1.50459714	      0.43007112	     -0.17031118	      1.32377135	      0.13153632	     -0.15174851	      1.38095743	      0.03777238	     -0.11551814	      1.34731583	      0.41272515	     -0.33623337	      1.32729432	      0.37269757	     -0.20315942	      1.51780905	      0.52826999	     -0.31039065	      1.45106764	      0.59046853	     -0.34353308	      1.39401283	      0.46980708	     -0.29624915	      1.29662090	      0.06891398	     -0.30209364	      1.31222799	      0.06736221	     -0.24835943	      1.31831260	      0.18798228	     -0.38300847	      1.30394387	      0.15352343	     -0.30768272	      1.37938255	      0.41757544	     -0.28269286	      1.31095612	      0.07586371	     -0.25592574	      1.40846538	      0.03491971	     -0.30059166	      1.42697867	      1.16170089	     -0.19123014	      1.42734138	      1.17197714	     -0.26573842	      1.32026591	      1.21286147	     -0.23654847	      1.41306832	      1.16470238	     -0.23025358	      1.44880886	      1.08582581	     -0.23855492	      1.38005700	      0.74026600	     -0.23337500	      1.36765900	      0.73639100	     -0.16823400	      1.36645900	      0.74161100	     -0.29843900	      1.49614500	      0.41779400	     -0.15938700	      1.37656600	      0.42160900	     -0.27052600	      1.32754000	      0.14162500	     -0.17082600	      1.30730600	      0.06946700	     -0.25795200	      1.44191400	      0.80292300	     -0.23146400	      1.44282500	      0.79896000	     -0.13260700	      1.44100300	      0.80688600	     -0.33032100	      1.28863000	      0.85182800	     -0.19214400	      1.28453300	      0.85331600	     -0.24687700	      1.49890000	      0.42042900	     -0.10451900	      1.37674000	      0.41687900	     -0.32482000	      1.50718800	      0.40993700	     -0.19553500	      1.36892200	      0.39654600	     -0.23095800	      1.31769500	      0.14614900	     -0.13492600	      1.30548100	      0.06850700	     -0.29489500	      1.33672900	      0.14277400	     -0.19385400	      1.30712400	      0.06896300	     -0.22786700	      1.32129400	      1.21786500	     -0.23534200	      1.42944400	      1.15837400	     -0.19494300	      1.42655500	      1.16134500	     -0.27086100	      1.41323300	      1.15880700	     -0.23377800	      1.44064100	      1.07631800	     -0.23564100	      1.56397600	      0.56866300	     -0.05311300	      1.51923000	      0.54325300	     -0.28742400	      1.46963800	      0.58689700	     -0.07996700	      1.44916800	      0.59889800	     -0.32799400	      1.50174100	      0.50871500	     -0.09274600	      1.43972600	      0.51273300	     -0.32024000	      1.35765300	      0.24945700	     -0.05592100	      1.35535900	      0.18081400	     -0.37129700	      1.35080000	      0.21715300	     -0.13232700	      1.32458700	      0.14975400	     -0.29925200	      1.38344900	      0.06428500	     -0.13978300	      1.40727200	      0.03691500	     -0.26314000	      0.00000000	      0.00000000	      0.00000000	      0.87178870	      0.00000000	     -0.18494519	     -3.72041237	    320.55752125	      4.31429461	      1.36965417	      0.00000000	     -0.26562738	      0.00000000	      0.00000000	      0.00000000	      0.00000000	     -0.67349170	      0.00000000	      1.38005686	      0.74026591	     -0.23337470	      1.36765933	      0.73639131	     -0.16823387	      1.36645949	      0.74161088	     -0.29843926	      1.49614525	      0.41779405	     -0.15938723	      1.37656569	      0.42160907	     -0.27052587	      1.32753956	      0.14162518	     -0.17082642	      1.30730569	      0.06946700	     -0.25795203	      1.44191372	      0.80292290	     -0.23146391	      1.44282472	      0.79895997	     -0.13260673	      1.44100273	      0.80688584	     -0.33032107	      1.28863037	      0.85182762	     -0.19214407	      1.28453279	      0.85331553	     -0.24687748	      1.49890006	      0.42042854	     -0.10451948	      1.37673974	      0.41687858	     -0.32481992	      1.50718832	      0.40993682	     -0.19553503	      1.36892235	      0.39654574	     -0.23095815	      1.31769454	      0.14614865	     -0.13492565	      1.30548131	      0.06850673	     -0.29489452	      1.33672869	      0.14277370	     -0.19385429	      1.30712438	      0.06896304	     -0.22786666	      1.32129419	      1.21786499	     -0.23534243	      1.42944431	      1.15837395	     -0.19494313	      1.42655480	      1.16134489	     -0.27086088	      1.41323292	      1.15880728	     -0.23377821	      1.44064069	      1.07631838	     -0.23564091	      1.56397617	      0.56866306	     -0.05311298	      1.51922989	      0.54325277	     -0.28742388	      1.46963823	      0.58689660	     -0.07996652	      1.44916761	      0.59889835	     -0.32799375	      1.50174117	      0.50871456	     -0.09274647	      1.43972623	      0.51273298	     -0.32024029	      1.35765338	      0.24945687	     -0.05592085	      1.35535932	      0.18081437	     -0.37129748	      1.35080040	      0.21715298	     -0.13232696	      1.32458663	      0.14975378	     -0.29925174	      1.38344860	      0.06428518	     -0.13978265	      1.40727150	      0.03691480	     -0.26313978
      0.77500000	      1.44604383	      0.79672701	     -0.23955117	     -5.87472372	      2.34435902	      1.45389487	     28.80483767	     -2.96322939	      3.97782422	    -51.10495461	     -4.56767302	      6.17095224	      6.93762439	      0.86842353	    -12.12315890	     10.08970363	      2.21441216	     -2.39272265	     -0.87106186	      0.00000000	      0.00000000	      0.00000000	      0.00000000	      1.46781167	      0.79157171	     -0.13702547	      1.48063692	      0.79453904	     -0.34617461	      1.45744168	      0.79556619	     -0.23984171	      1.32157762	      0.85172353	     -0.21672833	      1.32106813	      0.85229437	     -0.27186949	      1.38439009	      0.74585050	     -0.17202290	      1.38151188	      0.75176642	     -0.30857178	      1.38295099	      0.74880846	     -0.24029734	      1.49133989	      0.41019116	     -0.10762427	      1.48910441	      0.41121286	     -0.21481114	      1.55658084	      0.56012994	     -0.06683082	      1.46839114	      0.58995004	     -0.09540012	      1.49205675	      0.50615366	     -0.10966434	      1.34720386	      0.12031697	     -0.10256958	      1.35580074	      0.11353426	     -0.16177885	      1.37637394	      0.23384611	     -0.03408091	      1.36547860	      0.19581435	     -0.10666749	      1.52010349	      0.43290411	     -0.17098738	      1.35587268	      0.12504099	     -0.15063782	      1.41977691	      0.03552160	     -0.11490137	      1.34981850	      0.41293911	     -0.33605497	      1.32893933	      0.37339721	     -0.20296763	      1.52282013	      0.52470583	     -0.31026680	      1.45746061	      0.58835125	     -0.34341630	      1.39776781	      0.46898867	     -0.29609242	      1.29663803	      0.06907857	     -0.30174516	      1.31230485	      0.06742917	     -0.24803125	      1.31904753	      0.18797792	     -0.38271282	      1.30453973	      0.15363416	     -0.30736116	      1.38183923	      0.41716193	     -0.28252464	      1.31108194	      0.07593780	     -0.25559762	      1.40836100	      0.03469546	     -0.30049043	      1.43803667	      1.16145065	     -0.19121261	      1.43857165	      1.17182216	     -0.26570666	      1.33155451	      1.21296733	     -0.23666975	      1.42420999	      1.16454139	     -0.23025882	      1.45974644	      1.08557619	     -0.23859375	      1.39064700	      0.74056400	     -0.23290000	      1.37855000	      0.73682100	     -0.16775600	      1.37652200	      0.74142300	     -0.29797400	      1.51256200	      0.41981100	     -0.15975200	      1.37952400	      0.42152200	     -0.27019900	      1.35870500	      0.13447900	     -0.17035700	      1.30770200	      0.06969400	     -0.25775100	      1.45237300	      0.80308200	     -0.23177000	      1.45390900	      0.79959400	     -0.13307100	      1.45083600	      0.80657000	     -0.33046800	      1.29934200	      0.85200700	     -0.19108700	      1.29480800	      0.85341800	     -0.24577100	      1.51587000	      0.42259300	     -0.10492200	      1.37954800	      0.41680800	     -0.32449400	      1.52378400	      0.41307600	     -0.19634500	      1.37285700	      0.39650700	     -0.23059900	      1.34875800	      0.13850700	     -0.13442500	      1.30561500	      0.06881300	     -0.29468100	      1.36789700	      0.13599200	     -0.19344100	      1.30752700	      0.06912400	     -0.22762700	      1.33256900	      1.21806800	     -0.23547100	      1.44062900	      1.15827100	     -0.19494400	      1.43768800	      1.16134000	     -0.27083700	      1.42438900	      1.15878800	     -0.23375700	      1.45160900	      1.07623900	     -0.23574100	      1.57940800	      0.57239700	     -0.05405900	      1.52498500	      0.54073200	     -0.28724900	      1.48439900	      0.58911300	     -0.07981800	      1.45600900	      0.59779900	     -0.32736900	      1.51779400	      0.51136200	     -0.09322000	      1.44523300	      0.51179500	     -0.31980100	      1.38337200	      0.24385500	     -0.05565000	      1.35580500	      0.18102100	     -0.37115500	      1.37792000	      0.21120500	     -0.13205600	      1.32507000	      0.14987500	     -0.29897700	      1.41971300	      0.06151500	     -0.13914900	      1.40739500	      0.03685400	     -0.26315000	      0.00000000	      0.00000000	      0.00000000	      0.87322107	      0.00000000	     -0.18522618	     -2.33092136	    321.32950618	      3.63156945	      1.37503516	      0.00000000	     -0.26549652	      0.00000000	      0.00000000	      0.00000000	      0.00000000	     -0.82392279	      0.00000000	      1.39064670	      0.74056375	     -0.23289965	      1.37854958	      0.73682123	     -0.16775584	      1.37652218	      0.74142319	     -0.29797429	      1.51256156	      0.41981050	     -0.15975228	      1.37952447	      0.42152172	     -0.27019861	      1.35870457	      0.13447937	     -0.17035674	      1.30770206	      0.06969414	     -0.25775078	      1.45237279	      0.80308235	     -0.23176977	      1.45390940	      0.79959428	     -0.13307114	      1.45083618	      0.80657047	     -0.33046842	      1.29934239	      0.85200673	     -0.19108745	      1.29480755	      0.85341841	     -0.24577114	      1.51586998	      0.42259341	     -0.10492246	      1.37954795	      0.41680768	     -0.32449436	      1.52378368	      0.41307572	     -0.19634546	      1.37285674	      0.39650685	     -0.23059921	      1.34875846	      0.13850713	     -0.13442484	      1.30561531	      0.06881350	     -0.29468140	      1.36789656	      0.13599223	     -0.19344094	      1.30752707	      0.06912372	     -0.22762734	      1.33256936	      1.21806812	     -0.23547074	      1.44062924	      1.15827072	     -0.19494388	      1.43768811	      1.16134012	     -0.27083740	      1.42438900	      1.15878773	     -0.23375660	      1.45160878	      1.07623947	     -0.23574118	      1.57940841	      0.57239723	     -0.05405910	      1.52498496	      0.54073238	     -0.28724882	      1.48439872	      0.58911270	     -0.07981816	      1.45600903	      0.59779936	     -0.32736900	      1.51779401	      0.51136243	     -0.09321978	      1.44523346	      0.51179457	     -0.31980085	      1.38337243	      0.24385503	     -0.05565001	      1.35580540	      0.18102068	     -0.37115520	      1.37792015	      0.21120454	     -0.13205627	      1.32506955	      0.14987534	     -0.29897660	      1.41971254	      0.06151466	     -0.13914883	      1.40739548	      0.03685432	     -0.26315010
